<svg xmlns="http://www.w3.org/2000/svg" width="256" height="256" viewBox="0 0 100 100"><rect width="100" height="100" rx="50" fill="#000000"></rect><path fill="#ffffff" d="M5.98 68.85L5.98 68.85Q4.80 68.85 4.03 68.10Q3.25 67.36 3.25 66.12L3.25 66.12L3.25 31.28Q3.56 31.15 4.21 31.00Q4.86 30.84 5.61 30.84L5.61 30.84Q8.34 30.84 8.34 33.14L8.34 33.14L8.34 64.51L26.13 64.51Q26.81 65.19 26.81 66.55L26.81 66.55Q26.81 67.61 26.25 68.23Q25.70 68.85 24.77 68.85L24.77 68.85L5.98 68.85ZM58.74 31.15L58.74 31.15Q59.24 31.59 59.58 32.21Q59.92 32.83 59.92 33.51L59.92 33.51Q59.92 34.38 59.58 35.06Q59.24 35.74 58.62 36.61L58.62 36.61L38.22 64.57L59.73 64.57Q59.98 64.88 60.17 65.41Q60.35 65.93 60.35 66.62L60.35 66.62Q60.35 67.67 59.83 68.26Q59.30 68.85 58.43 68.85L58.43 68.85L33.07 68.85Q32.58 68.41 32.24 67.79Q31.90 67.17 31.90 66.49L31.90 66.49Q31.90 65.62 32.24 64.94Q32.58 64.26 33.20 63.39L33.20 63.39L53.60 35.43L32.95 35.43Q32.76 35.12 32.55 34.59Q32.33 34.07 32.33 33.38L32.33 33.38Q32.33 32.33 32.86 31.74Q33.38 31.15 34.31 31.15L34.31 31.15L58.74 31.15ZM96.38 35.31L96.38 35.31Q96.38 36.17 95.85 36.79Q95.32 37.41 94.64 37.72L94.64 37.72Q93.03 36.61 90.86 35.62Q88.69 34.62 85.22 34.62L85.22 34.62Q82.36 34.62 79.95 35.62Q77.53 36.61 75.73 38.53Q73.93 40.45 72.91 43.37Q71.89 46.28 71.89 50.06L71.89 50.06Q71.89 53.91 72.88 56.76Q73.87 59.61 75.64 61.53Q77.40 63.45 79.88 64.41Q82.36 65.38 85.40 65.38L85.40 65.38Q88.63 65.38 91.01 64.48Q93.40 63.58 95.01 62.34L95.01 62.34Q95.63 62.59 96.19 63.24Q96.75 63.89 96.75 64.76L96.75 64.76Q96.75 66.06 95.26 67.11L95.26 67.11Q93.83 68.10 91.35 68.88Q88.87 69.65 85.03 69.65L85.03 69.65Q81.12 69.65 77.78 68.41Q74.43 67.17 71.98 64.72Q69.53 62.28 68.10 58.62Q66.68 54.96 66.68 50.06L66.68 50.06Q66.68 45.16 68.13 41.47Q69.59 37.79 72.07 35.31Q74.55 32.83 77.87 31.59Q81.19 30.35 84.84 30.35L84.84 30.35Q87.39 30.35 89.53 30.78Q91.66 31.21 93.18 31.93Q94.70 32.64 95.54 33.54Q96.38 34.44 96.38 35.31Z"></path></svg>