<svg xmlns="http://www.w3.org/2000/svg" width="256" height="256" viewBox="0 0 100 100"><rect width="100" height="100" rx="50"/><path fill="#fff" d="M5.98 68.85q-1.18 0-1.95-.75-.78-.74-.78-1.98V31.28q.31-.13.96-.28.65-.16 1.4-.16 2.73 0 2.73 2.3v31.37h17.79q.68.68.68 2.04 0 1.06-.56 1.68-.55.62-1.48.62H5.98Zm52.76-37.7q.5.44.84 1.06.34.62.34 1.3 0 .87-.34 1.55t-.96 1.55l-20.4 27.96h21.51q.25.31.44.84.18.52.18 1.21 0 1.05-.52 1.64-.53.59-1.4.59H33.07q-.49-.44-.83-1.06-.34-.62-.34-1.3 0-.87.34-1.55t.96-1.55l20.4-27.96H32.95q-.19-.31-.4-.84-.22-.52-.22-1.21 0-1.05.53-1.64.52-.59 1.45-.59h24.43Zm37.64 4.16q0 .86-.53 1.48t-1.21.93q-1.61-1.11-3.78-2.1-2.17-1-5.64-1-2.86 0-5.27 1-2.42.99-4.22 2.91-1.8 1.92-2.82 4.84-1.02 2.91-1.02 6.69 0 3.85.99 6.7t2.76 4.77q1.76 1.92 4.24 2.88 2.48.97 5.52.97 3.23 0 5.61-.9 2.39-.9 4-2.14.62.25 1.18.9.56.65.56 1.52 0 1.3-1.49 2.35-1.43.99-3.91 1.77-2.48.77-6.32.77-3.91 0-7.25-1.24-3.35-1.24-5.8-3.69-2.45-2.44-3.88-6.1-1.42-3.66-1.42-8.56t1.45-8.59q1.46-3.68 3.94-6.16t5.8-3.72q3.32-1.24 6.97-1.24 2.55 0 4.69.43 2.13.43 3.65 1.15 1.52.71 2.36 1.61.84.9.84 1.77Z"/></svg>