<?xml version="1.0" standalone="no"?><!DOCTYPE svg PUBLIC "-//W3C//DTD SVG 1.1//EN" "http://www.w3.org/Graphics/SVG/1.1/DTD/svg11.dtd"><svg t="1678791709857" class="icon" viewBox="0 0 1024 1024" version="1.1" xmlns="http://www.w3.org/2000/svg" p-id="2530" xmlns:xlink="http://www.w3.org/1999/xlink" width="200" height="200"><path d="M810.666667 640V170.666667a42.666667 42.666667 0 0 0-16.213334-33.28 42.666667 42.666667 0 0 0-35.84-8.533334l-384 85.333334A42.666667 42.666667 0 0 0 341.333333 256v355.84a148.906667 148.906667 0 1 0 85.333334 135.68 186.026667 186.026667 0 0 0 0-22.186667V290.133333l298.666666-66.133333v302.506667a148.906667 148.906667 0 1 0 85.333334 135.253333 194.986667 194.986667 0 0 0 0-21.76z" fill="#231F20" p-id="2531"></path></svg>